<svg width="234" height="168" viewBox="0 0 234 168" fill="none" xmlns="http://www.w3.org/2000/svg">
<path d="M2.12084 157.412C12.0181 147.059 19.7946 137.412 25.4501 128.47C31.1057 119.529 33.9335 112.235 33.9335 106.588C33.9335 103.294 32.7553 100.235 30.3988 97.4116C28.5136 94.5881 25.4501 91.5293 21.2085 88.2352C14.6103 83.0587 9.42598 77.6469 5.65559 71.9999C1.8852 66.3528 0 58.8234 0 49.4116C0 34.8234 4.47732 23.0587 13.432 14.1175C22.3867 4.70576 33.6979 -0.00012207 47.3656 -0.00012207C61.9758 -0.00012207 73.7583 4.70576 82.713 14.1175C92.139 23.0587 96.8519 34.8234 96.8519 49.4116C96.8519 67.7646 89.0755 87.9999 73.5226 110.118C58.4411 131.765 38.1752 151.059 12.7251 168L2.12084 157.412ZM139.269 157.412C149.166 147.059 156.943 137.412 162.598 128.47C168.254 119.529 171.082 112.235 171.082 106.588C171.082 103.294 169.903 100.235 167.547 97.4116C165.662 94.5881 162.598 91.5293 158.356 88.2352C151.758 83.0587 146.574 77.6469 142.804 71.9999C139.033 66.3528 137.148 58.8234 137.148 49.4116C137.148 34.8234 141.625 23.0587 150.58 14.1175C159.535 4.70576 170.846 -0.00012207 184.514 -0.00012207C199.124 -0.00012207 210.906 4.70576 219.861 14.1175C229.287 23.0587 234 34.8234 234 49.4116C234 67.7646 226.224 87.9999 210.671 110.118C195.589 131.765 175.323 151.059 149.873 168L139.269 157.412Z" fill="#EDF0FD"/>
</svg>
